HIERARCHY
ROOT Hips
{
	OFFSET	0.00	0.00	0.00
	CHANNELS 6 Xposition Yposition Zposition Zrotation Xrotation Yrotation
	JOINT LeftUpLeg
	{
		OFFSET	 0.126116	-0.065224	 0.014019
		CHANNELS 3 Zrotation Xrotation Yrotation
		JOINT LeftLeg
		{
			OFFSET	 0.000000	 0.569914	 0.000000
			CHANNELS 3 Zrotation Xrotation Yrotation
			JOINT LeftFoot
			{
				OFFSET	 0.000000	 0.544423	 0.000000
				CHANNELS 3 Zrotation Xrotation Yrotation
				JOINT LeftToeBase
				{
					OFFSET	 0.000000	 0.207117	 0.000000
					CHANNELS 3 Zrotation Xrotation Yrotation
					End Site
					{
						OFFSET	 0.000000	 0.207117	 0.000000
					}
				}
			}
		}
	}
	JOINT RightUpLeg
	{
		OFFSET	-0.124023	-0.065224	 0.008373
		CHANNELS 3 Zrotation Xrotation Yrotation
		JOINT RightLeg
		{
			OFFSET	 0.000000	 0.570047	 0.000000
			CHANNELS 3 Zrotation Xrotation Yrotation
			JOINT RightFoot
			{
				OFFSET	 0.000000	 0.544354	 0.000000
				CHANNELS 3 Zrotation Xrotation Yrotation
				JOINT RightToeBase
				{
					OFFSET	 0.000000	 0.207540	 0.000000
					CHANNELS 3 Zrotation Xrotation Yrotation
					End Site
					{
						OFFSET	 0.000000	 0.207540	 0.000000
					}
				}
			}
		}
	}
	JOINT Spine
	{
		OFFSET	 0.000184	 0.117403	 0.007763
		CHANNELS 3 Zrotation Xrotation Yrotation
		JOINT Spine1
		{
			OFFSET	 0.000000	 0.137269	 0.000000
			CHANNELS 3 Zrotation Xrotation Yrotation
			JOINT Spine2
			{
				OFFSET	 0.000000	 0.156879	 0.000000
				CHANNELS 3 Zrotation Xrotation Yrotation
				JOINT LeftShoulder
				{
					OFFSET	 0.080501	 0.160143	 0.002496
					CHANNELS 3 Zrotation Xrotation Yrotation
					JOINT LeftArm
					{
						OFFSET	 0.000000	 0.164363	 0.000000
						CHANNELS 3 Zrotation Xrotation Yrotation
						JOINT LeftForeArm
						{
							OFFSET	 0.000000	 0.364576	 0.000000
							CHANNELS 3 Zrotation Xrotation Yrotation
							JOINT LeftHand
							{
								OFFSET	 0.000000	 0.360812	 0.000000
								CHANNELS 3 Zrotation Xrotation Yrotation
								JOINT LeftHandIndex1
								{
									OFFSET	 0.000000	 0.086006	 0.000000
									CHANNELS 3 Zrotation Xrotation Yrotation
									JOINT LeftHandIndex2
									{
										OFFSET	 0.000000	 0.047237	 0.000000
										CHANNELS 3 Zrotation Xrotation Yrotation
										JOINT LeftHandIndex3
										{
											OFFSET	-0.004284	 0.038165	 0.000551
											CHANNELS 3 Zrotation Xrotation Yrotation
											End Site
											{
												OFFSET	-0.004284	 0.038165	 0.000551
											}
										}
									}
								}
							}
						}
					}
				}
				JOINT Neck
				{
					OFFSET	 0.000000	 0.176489	 0.000000
					CHANNELS 3 Zrotation Xrotation Yrotation
					JOINT Head
					{
						OFFSET	 0.000000	 0.077941	 0.001747
						CHANNELS 3 Zrotation Xrotation Yrotation
						End Site
						{
							OFFSET	 0.000000	 0.077941	 0.001747
						}
					}
				}
				JOINT RightShoulder
				{
					OFFSET	-0.080363	 0.159706	-0.000306
					CHANNELS 3 Zrotation Xrotation Yrotation
					JOINT RightArm
					{
						OFFSET	 0.000000	 0.164196	 0.000000
						CHANNELS 3 Zrotation Xrotation Yrotation
						JOINT RightForeArm
						{
							OFFSET	 0.000000	 0.365611	 0.000000
							CHANNELS 3 Zrotation Xrotation Yrotation
							JOINT RightHand
							{
								OFFSET	 0.000000	 0.360648	 0.000000
								CHANNELS 3 Zrotation Xrotation Yrotation
								JOINT RightHandIndex1
								{
									OFFSET	 0.000000	 0.069977	 0.000000
									CHANNELS 3 Zrotation Xrotation Yrotation
									JOINT RightHandIndex2
									{
										OFFSET	 0.000000	 0.052305	 0.000000
										CHANNELS 3 Zrotation Xrotation Yrotation
										JOINT RightHandIndex3
										{
											OFFSET	 0.009002	 0.042196	 0.000782
											CHANNELS 3 Zrotation Xrotation Yrotation
											End Site
											{
												OFFSET	 0.009002	 0.042196	 0.000782
											}
										}
									}
								}
							}
						}
					}
				}
			}
		}
	}
}
MOTION
Frames:    6
Frame Time: 0.03333334
-0.003864	 1.233651	 0.011389	 1.007496	 0.356201	 172.350300	-161.482200	 12.520580	-26.741510	 5.216897	-18.856780	 2.997655	-11.758950	 62.520280	 3.918114	 1.162021	 26.689190	-2.659656	 172.992100	 11.084310	 18.314530	-2.611134	-31.018760	 7.767433	 13.492550	 78.021430	-9.668113	-1.288989	 28.372430	 2.710516	 2.565338	 6.816128	 10.703910	-5.932209	 2.399233	 5.299595	 8.588625	-1.523414	-13.109970	-113.195400	 6.483898	 92.935010	 21.534580	 46.735050	 3.692913	 4.897281	-0.253137	-0.072999	 22.890800	 18.909830	 39.313390	 0.561178	 8.652261	-0.355721	-5.949625	 13.577840	 1.517980	 4.985970	-3.513325	-0.334722	 3.185830	-6.825668	 0.871011	-1.201349	-5.876891	-0.080125	 123.459200	 10.373570	-96.383450	-7.808914	 37.626900	-1.131332	-6.218145	-0.244335	 0.045352	 6.243531	 6.264793	 9.187302	-2.307748	 4.845225	 0.896267	 12.530440	 22.792520	-5.133874	-8.499888	 13.014950	-0.519991
-0.004349	 1.233207	 0.012829	 0.794131	-0.200932	 170.661500	-161.128700	 12.712580	-28.608840	 5.336017	-19.254830	 2.338057	-13.265600	 62.710430	 5.510847	 1.160516	 26.668820	-2.659059	 172.867100	 12.199580	 17.388150	-2.630568	-31.414020	 7.056028	 10.016330	 77.970430	-6.038021	-1.287548	 28.353480	 2.709906	 2.891751	 6.820143	 11.846350	-8.569753	 1.541995	 6.669493	 9.822000	-0.607392	-12.581660	-112.539100	 6.576447	 93.003680	 22.599690	 46.699340	 3.616114	 4.987270	-0.251631	 0.109167	 21.522030	 20.010050	 42.296540	 1.070484	 7.070036	-0.346830	-5.943227	 13.933100	 1.556079	 5.011625	-2.948682	-0.321200	 3.167214	-6.839541	 0.978273	-1.211560	-6.005286	 0.762451	 123.019100	 10.445100	-96.337210	-9.005556	 38.590820	 0.103473	-5.222105	-0.200593	-0.132599	 6.199852	 6.106281	 12.699190	-2.492066	 5.422437	 0.889667	 12.645650	 24.315650	-5.504903	-8.510163	 14.261650	-0.598764
-0.004837	 1.232703	 0.015162	 0.456644	-0.966910	 168.359800	-160.631500	 12.917000	-31.180690	 5.462483	-19.675180	 1.418147	-15.398500	 62.860340	 7.753642	 1.158445	 26.640790	-2.658237	 172.709400	 13.725910	 16.113130	-2.654147	-31.895020	 6.078251	 5.189397	 77.794680	-0.988995	-1.285567	 28.327410	 2.709069	 3.112879	 6.576390	 13.647710	-12.489890	 1.194866	 9.068974	 11.549640	-0.393282	-11.732630	-111.635800	 6.705088	 93.096440	 23.721730	 46.440460	 3.791573	 5.114016	-0.249778	 0.359683	 20.258840	 21.331920	 46.753850	 1.770498	 4.889497	-0.311486	-5.934804	 14.421950	 1.608536	 5.046694	-2.171618	-0.303015	 3.141640	-6.858688	 1.125854	-1.224967	-6.262388	 1.967368	 122.413100	 10.542960	-96.272670	-9.409800	 40.195410	 0.934431	-5.375650	-0.200203	-0.383046	 6.151396	 5.547509	 18.221690	-2.745932	 6.216839	 0.883626	 12.824860	 26.413330	-6.029545	-8.521494	 15.978690	-0.707640
-0.005285	 1.232520	 0.017224	 0.183560	-1.665211	 166.527200	-160.178600	 13.123420	-33.258340	 5.542183	-19.939000	 0.669943	-17.112270	 62.907380	 9.552148	 1.156779	 26.618220	-2.657577	 172.655300	 14.986440	 15.196520	-2.728367	-32.140380	 5.171749	 1.302271	 77.513460	 3.076204	-1.283973	 28.306430	 2.708395	 3.077774	 6.239359	 15.137380	-15.419970	 0.930563	 11.145620	 12.720450	-0.222591	-10.822010	-110.908400	 6.809724	 93.169650	 24.700850	 45.949190	 3.857713	 5.208220	-0.247861	 0.561088	 19.037710	 22.305010	 50.212400	 2.334373	 3.132196	-0.263649	-5.928346	 14.815560	 1.650802	 5.074742	-1.545894	-0.288723	 3.121087	-6.874151	 1.244672	-1.242267	-6.430540	 3.001719	 121.925000	 10.621280	-96.219930	-9.997503	 41.581710	 1.731708	-5.496665	-0.199779	-0.584472	 6.152093	 5.167388	 22.525550	-2.950588	 6.856544	 0.881331	 12.987620	 28.102880	-6.465044	-8.528212	 17.362070	-0.795809
-0.005714	 1.232520	 0.018163	 0.105265	-2.033798	 165.717400	-159.903900	 13.288760	-34.186650	 5.594727	-20.112380	 0.344791	-17.872940	 62.949180	 10.344750	 1.156042	 26.608230	-2.657285	 172.702600	 15.559330	 14.756930	-2.730901	-32.164230	 4.816734	-0.365704	 77.318430	 4.819744	-1.283268	 28.297140	 2.708097	 3.059704	 6.122167	 15.528620	-16.431060	 0.395633	 11.833280	 12.982030	 0.444958	-9.959931	-110.586400	 6.856338	 93.201650	 25.317860	 45.540920	 3.693510	 5.241866	-0.246643	 0.650081	 18.001900	 22.512900	 50.823860	 2.584230	 2.354279	-0.236964	-5.925580	 14.989770	 1.669519	 5.087104	-1.268949	-0.282496	 3.112000	-6.881009	 1.297258	-1.265581	-6.400908	 3.577163	 121.708900	 10.655790	-96.196350	-10.615110	 42.232700	 2.305743	-5.537066	-0.199123	-0.673416	 6.369215	 5.186642	 23.299060	-3.041249	 7.139678	 0.881049	 13.065190	 28.850560	-6.661831	-8.530488	 17.974470	-0.835002
-0.006149	 1.232540	 0.018208	 0.196286	-2.115294	 165.695200	-159.771700	 13.421010	-34.214290	 5.643556	-20.273190	 0.356732	-17.897220	 63.031690	 10.356770	 1.156031	 26.608090	-2.657281	 172.804600	 15.585130	 14.753620	-2.720769	-32.068320	 4.817090	-0.324475	 77.251350	 4.774777	-1.283258	 28.297000	 2.708093	 3.165691	 6.295755	 14.892330	-16.041070	-0.509570	 11.292070	 12.543700	 1.706660	-8.945548	-110.581900	 6.856994	 93.202100	 25.674350	 45.242510	 3.325067	 5.227405	-0.245877	 0.651233	 17.040870	 22.072770	 48.714110	 2.587778	 2.343237	-0.236560	-5.925540	 14.992240	 1.669784	 5.087279	-1.265017	-0.282409	 3.111871	-6.881105	 1.298004	-1.296134	-6.192552	 3.838851	 121.705800	 10.656280	-96.196020	-11.181520	 42.348900	 2.664431	-5.514080	-0.198173	-0.674611	 6.755312	 5.454744	 20.761910	-3.042536	 7.143697	 0.881049	 13.066320	 28.861170	-6.664644	-8.530516	 17.983170	-0.835559
